<mxfile host="app.diagrams.net" modified="2023-12-03T11:46:15.326Z" agent="Mozilla/5.0 (Windows NT 10.0; Win64; x64) AppleWebKit/537.36 (KHTML, like Gecko) Chrome/119.0.0.0 Safari/537.36" etag="qug-fK4bCW2moSto0neE" version="22.1.5" type="device">
  <diagram name="Page-1" id="1yKIucM5vdOgJ_kGE98q">
    <mxGraphModel dx="1434" dy="800" grid="1" gridSize="10" guides="1" tooltips="1" connect="1" arrows="1" fold="1" page="1" pageScale="1" pageWidth="850" pageHeight="1100" math="0" shadow="0">
      <root>
        <mxCell id="0" />
        <mxCell id="1" parent="0" />
        <mxCell id="_taAfA5v00KtlvDbRlJR-1" value="Brainfuck" style="rounded=0;whiteSpace=wrap;html=1;" vertex="1" parent="1">
          <mxGeometry x="380" y="330" width="70" height="30" as="geometry" />
        </mxCell>
        <mxCell id="_taAfA5v00KtlvDbRlJR-2" value=":Language" style="rounded=0;whiteSpace=wrap;html=1;" vertex="1" parent="1">
          <mxGeometry x="230" y="230" width="70" height="30" as="geometry" />
        </mxCell>
        <mxCell id="_taAfA5v00KtlvDbRlJR-3" value="" style="endArrow=classic;html=1;rounded=0;entryX=1;entryY=1;entryDx=0;entryDy=0;exitX=0;exitY=0;exitDx=0;exitDy=0;" edge="1" parent="1" source="_taAfA5v00KtlvDbRlJR-1" target="_taAfA5v00KtlvDbRlJR-2">
          <mxGeometry width="50" height="50" relative="1" as="geometry">
            <mxPoint x="280" y="340" as="sourcePoint" />
            <mxPoint x="330" y="290" as="targetPoint" />
          </mxGeometry>
        </mxCell>
        <mxCell id="_taAfA5v00KtlvDbRlJR-4" value="rdf:type" style="edgeLabel;html=1;align=center;verticalAlign=middle;resizable=0;points=[];" vertex="1" connectable="0" parent="_taAfA5v00KtlvDbRlJR-3">
          <mxGeometry x="0.0796" relative="1" as="geometry">
            <mxPoint as="offset" />
          </mxGeometry>
        </mxCell>
        <mxCell id="_taAfA5v00KtlvDbRlJR-5" value="Urban MÃ¼ller" style="rounded=0;whiteSpace=wrap;html=1;" vertex="1" parent="1">
          <mxGeometry x="530" y="240" width="70" height="30" as="geometry" />
        </mxCell>
        <mxCell id="_taAfA5v00KtlvDbRlJR-7" value="" style="endArrow=classic;html=1;rounded=0;exitX=1;exitY=0;exitDx=0;exitDy=0;entryX=0;entryY=1;entryDx=0;entryDy=0;" edge="1" parent="1" source="_taAfA5v00KtlvDbRlJR-1" target="_taAfA5v00KtlvDbRlJR-5">
          <mxGeometry width="50" height="50" relative="1" as="geometry">
            <mxPoint x="480" y="320" as="sourcePoint" />
            <mxPoint x="530" y="270" as="targetPoint" />
          </mxGeometry>
        </mxCell>
        <mxCell id="_taAfA5v00KtlvDbRlJR-8" value=":creator" style="edgeLabel;html=1;align=center;verticalAlign=middle;resizable=0;points=[];" vertex="1" connectable="0" parent="_taAfA5v00KtlvDbRlJR-7">
          <mxGeometry x="-0.396" y="-1" relative="1" as="geometry">
            <mxPoint as="offset" />
          </mxGeometry>
        </mxCell>
        <mxCell id="_taAfA5v00KtlvDbRlJR-9" value=":Person" style="rounded=0;whiteSpace=wrap;html=1;" vertex="1" parent="1">
          <mxGeometry x="670" y="330" width="70" height="30" as="geometry" />
        </mxCell>
        <mxCell id="_taAfA5v00KtlvDbRlJR-10" value="" style="endArrow=classic;html=1;rounded=0;entryX=0;entryY=0;entryDx=0;entryDy=0;exitX=1;exitY=1;exitDx=0;exitDy=0;" edge="1" parent="1" source="_taAfA5v00KtlvDbRlJR-5" target="_taAfA5v00KtlvDbRlJR-9">
          <mxGeometry width="50" height="50" relative="1" as="geometry">
            <mxPoint x="580" y="340" as="sourcePoint" />
            <mxPoint x="630" y="290" as="targetPoint" />
          </mxGeometry>
        </mxCell>
        <mxCell id="_taAfA5v00KtlvDbRlJR-11" value="rdf:type" style="edgeLabel;html=1;align=center;verticalAlign=middle;resizable=0;points=[];" vertex="1" connectable="0" parent="_taAfA5v00KtlvDbRlJR-10">
          <mxGeometry x="-0.1106" y="-2" relative="1" as="geometry">
            <mxPoint as="offset" />
          </mxGeometry>
        </mxCell>
        <mxCell id="_taAfA5v00KtlvDbRlJR-16" value="rdf:type" style="edgeStyle=orthogonalEdgeStyle;rounded=0;orthogonalLoop=1;jettySize=auto;html=1;entryX=1;entryY=0.5;entryDx=0;entryDy=0;" edge="1" parent="1" source="_taAfA5v00KtlvDbRlJR-12" target="_taAfA5v00KtlvDbRlJR-15">
          <mxGeometry relative="1" as="geometry" />
        </mxCell>
        <mxCell id="_taAfA5v00KtlvDbRlJR-12" value=":copy.sh" style="rounded=0;whiteSpace=wrap;html=1;" vertex="1" parent="1">
          <mxGeometry x="230" y="440" width="70" height="30" as="geometry" />
        </mxCell>
        <mxCell id="_taAfA5v00KtlvDbRlJR-13" value="" style="endArrow=classic;html=1;rounded=0;entryX=1;entryY=0;entryDx=0;entryDy=0;exitX=0;exitY=1;exitDx=0;exitDy=0;" edge="1" parent="1" source="_taAfA5v00KtlvDbRlJR-1" target="_taAfA5v00KtlvDbRlJR-12">
          <mxGeometry width="50" height="50" relative="1" as="geometry">
            <mxPoint x="370" y="450" as="sourcePoint" />
            <mxPoint x="420" y="400" as="targetPoint" />
          </mxGeometry>
        </mxCell>
        <mxCell id="_taAfA5v00KtlvDbRlJR-14" value=":compiledBy" style="edgeLabel;html=1;align=center;verticalAlign=middle;resizable=0;points=[];" vertex="1" connectable="0" parent="_taAfA5v00KtlvDbRlJR-13">
          <mxGeometry x="0.225" y="1" relative="1" as="geometry">
            <mxPoint y="1" as="offset" />
          </mxGeometry>
        </mxCell>
        <mxCell id="_taAfA5v00KtlvDbRlJR-15" value=":Compiler" style="rounded=0;whiteSpace=wrap;html=1;" vertex="1" parent="1">
          <mxGeometry x="90" y="440" width="70" height="30" as="geometry" />
        </mxCell>
        <mxCell id="_taAfA5v00KtlvDbRlJR-19" value="&quot;1993-09-01&quot;^^xsd:date" style="rounded=0;whiteSpace=wrap;html=1;" vertex="1" parent="1">
          <mxGeometry x="480" y="440" width="130" height="30" as="geometry" />
        </mxCell>
        <mxCell id="_taAfA5v00KtlvDbRlJR-20" value="" style="endArrow=classic;html=1;rounded=0;exitX=1;exitY=1;exitDx=0;exitDy=0;entryX=0.5;entryY=0;entryDx=0;entryDy=0;" edge="1" parent="1" source="_taAfA5v00KtlvDbRlJR-1" target="_taAfA5v00KtlvDbRlJR-19">
          <mxGeometry width="50" height="50" relative="1" as="geometry">
            <mxPoint x="450" y="440" as="sourcePoint" />
            <mxPoint x="500" y="390" as="targetPoint" />
          </mxGeometry>
        </mxCell>
        <mxCell id="_taAfA5v00KtlvDbRlJR-21" value=":date" style="edgeLabel;html=1;align=center;verticalAlign=middle;resizable=0;points=[];" vertex="1" connectable="0" parent="_taAfA5v00KtlvDbRlJR-20">
          <mxGeometry x="-0.237" y="-2" relative="1" as="geometry">
            <mxPoint as="offset" />
          </mxGeometry>
        </mxCell>
      </root>
    </mxGraphModel>
  </diagram>
</mxfile>
